<svg opacity="0.3" width="205" height="287" viewBox="0 0 205 287" fill="none" xmlns="http://www.w3.org/2000/svg">
<path d="M45.0121 1.58246H18.4333V143.471M45.0121 1.58246H159.043M45.0121 1.58246V74.5945M45.0121 285.36H18.4333V143.471M45.0121 285.36H159.043M45.0121 285.36V211.207M159.043 285.36H187.908V143.471M159.043 285.36V211.207M159.043 1.58246H187.908V143.471M159.043 1.58246V74.5945M159.043 74.5945V211.207M159.043 74.5945H99.3127M45.0121 74.5945V211.207M45.0121 74.5945H99.3127M45.0121 211.207H99.3127M159.043 211.207H99.3127M18.4333 143.471L1 143.043H204.199L187.908 143.471M99.3127 211.207V74.5945" stroke="white" stroke-width="3" />
</svg>

