<svg width="300" height="301" viewBox="0 0 300 301" fill="none" xmlns="http://www.w3.org/2000/svg">
<path d="M30.058 145.093C27.0171 145.101 24.1028 146.311 21.9507 148.46C19.7987 150.609 18.5835 153.521 18.5703 156.562C18.5703 162.856 23.7454 167.937 30.058 167.937C31.555 167.942 33.0382 167.651 34.4226 167.082C35.8071 166.512 37.0655 165.675 38.1257 164.619C39.186 163.562 40.0272 162.306 40.6012 160.924C41.1752 159.541 41.4707 158.059 41.4707 156.562C41.474 153.529 40.2745 150.618 38.1351 148.468C35.9957 146.318 33.091 145.104 30.058 145.093ZM189.36 49.7226C195.948 49.7309 202.27 47.1222 206.935 42.4703C211.6 37.8183 214.226 31.504 214.236 24.916C214.236 18.3079 211.611 11.9704 206.938 7.29773C202.265 2.62507 195.928 0 189.32 0C182.712 0 176.374 2.62507 171.702 7.29773C167.029 11.9704 164.404 18.3079 164.404 24.916C164.404 38.6537 175.592 49.7226 189.36 49.7226ZM296.431 271.051L255.949 223.388C255.949 223.388 243.305 149.799 243.305 149.643L241.411 141.299C241.486 141.38 236.324 118.086 232.367 99.8797C238.68 103.517 244.38 106.78 244.686 106.936C244.993 107.611 266.137 147.749 266.137 147.749C267.749 150.718 270.424 152.918 273.606 153.893C275.197 154.39 276.872 154.566 278.532 154.409C280.192 154.252 281.804 153.767 283.274 152.98C284.751 152.225 286.058 151.177 287.116 149.899C288.173 148.621 288.959 147.141 289.425 145.549C289.956 143.985 290.156 142.327 290.011 140.682C289.865 139.036 289.378 137.439 288.581 135.993L265.399 91.9045C265.399 91.9045 264.474 90.3108 263.262 89.1045C261.587 87.4357 257.918 85.3857 257.918 85.3857L212.886 59.8103C207.173 56.929 200.861 55.9477 194.536 57.3103C191.936 57.8415 189.517 58.829 186.785 60.3478C186.467 60.4166 176.498 64.8166 170.723 78.3356L147.597 124.768L111.141 131.824L110.303 132.124L77.39 108.905C70.0086 103.748 69.1024 88.267 69.0149 87.6607C68.1086 77.0418 62.0148 67.0229 52.2771 60.1166C43.4582 53.8977 32.7956 51.2477 23.0517 52.8289C15.439 54.1227 8.97645 58.0665 4.86389 63.8416C1.64678 68.4123 -0.0540574 73.8777 0.00131011 79.4669L0.457567 84.4857C2.13884 94.2608 8.14519 103.367 16.9766 109.667C25.8767 115.961 36.4581 118.624 46.1958 116.955L48.4833 116.499C48.7083 116.349 63.321 111.861 70.4712 116.73C70.4712 116.799 95.084 134.099 101.634 138.73C100.953 139.793 99.7341 142.137 99.8091 144.574C99.826 146.43 100.251 148.26 101.055 149.933C101.859 151.607 103.021 153.083 104.46 154.256C105.898 155.43 107.577 156.272 109.378 156.723C111.178 157.175 113.056 157.224 114.878 156.868L158.548 148.362C158.548 148.362 162.285 147.224 163.885 146.08C165.948 144.643 167.46 141.612 167.46 141.612L178.948 118.542C178.948 118.542 186.873 155.793 187.004 156.474C186.098 157.387 151.179 194.337 151.179 194.337L149.835 195.1C146.391 198.2 143.754 202.294 143.754 206.631V284.92C143.754 293.283 151.047 300.033 159.416 300.033C167.716 300.033 175.004 293.283 175.004 284.92V219.525C181.254 216.194 205.279 188.05 212.43 180.593C213.198 184.993 220.255 224.694 220.255 224.694C220.867 228.188 222.624 231.369 225.136 233.938C225.136 234.026 273.256 290.633 273.256 290.633C275.907 293.654 279.611 295.549 283.612 295.933C287.619 296.233 291.585 294.96 294.668 292.383C296.337 290.956 297.678 289.185 298.598 287.191C299.518 285.197 299.997 283.028 300 280.832C300.022 277.25 298.755 273.778 296.431 271.051ZM56.3897 100.336C53.7271 104.055 49.6208 106.48 44.5208 107.392C37.3644 108.599 29.3705 106.555 22.6829 101.698C15.9141 96.9109 11.339 90.092 10.1265 82.9607L9.81396 79.3919C9.81396 75.673 10.8077 72.3417 12.864 69.4542C19.4829 60.2041 34.6206 59.5978 46.6395 68.0917C58.596 76.5918 63.0085 91.0795 56.3897 100.336Z" fill="black"/>
</svg>
